<svg width="20" height="21" viewBox="0 0 20 21" fill="none" xmlns="http://www.w3.org/2000/svg">
<path d="M9.98328 13.9391C9.32467 13.9391 8.68085 13.7419 8.13323 13.3726C7.58562 13.0032 7.1588 12.4782 6.90676 11.864C6.65472 11.2498 6.58878 10.5739 6.71727 9.92188C6.84576 9.26983 7.16291 8.67088 7.62862 8.20078C8.09433 7.73067 8.68768 7.41053 9.33363 7.28083C9.97959 7.15113 10.6491 7.21769 11.2576 7.47211C11.8661 7.72653 12.3862 8.15737 12.7521 8.71015C13.118 9.26294 13.3133 9.91283 13.3133 10.5777C13.3133 11.0191 13.2271 11.4562 13.0598 11.864C12.8925 12.2718 12.6472 12.6424 12.3379 12.9545C12.0287 13.2667 11.6616 13.5143 11.2576 13.6832C10.8536 13.8521 10.4206 13.9391 9.98328 13.9391Z" fill="#CCCCCC"/>
<path fill-rule="evenodd" clip-rule="evenodd" d="M19.48 3.96668C19.7652 4.75344 19.9206 5.58208 19.94 6.41961C20 7.48961 20 7.83282 20 10.5785C20 12.2689 19.9773 13.0487 19.9598 13.6481C19.9489 14.0222 19.94 14.3261 19.94 14.7374C19.9206 15.5749 19.7652 16.4035 19.48 17.1903C19.2283 17.8648 18.8322 18.4749 18.32 18.977C17.8248 19.4944 17.2196 19.8914 16.55 20.1379C15.7727 20.4345 14.9509 20.5949 14.12 20.6123C13.06 20.6729 12.72 20.6729 10 20.6729C7.28 20.6729 6.94 20.6729 5.88 20.6123C5.04915 20.5949 4.22734 20.4345 3.45 20.1379C2.78168 19.8889 2.17693 19.4923 1.68 18.977C1.16743 18.4771 0.774175 17.8662 0.529999 17.1903C0.23616 16.4056 0.0772095 15.5761 0.0599995 14.7374C0 13.6674 0 13.3242 0 10.5785C0 7.83282 0 7.48961 0.0599995 6.41961C0.0772095 5.58092 0.23616 4.75136 0.529999 3.96668C0.774175 3.2908 1.16743 2.67983 1.68 2.17998C2.17693 1.66473 2.78168 1.26811 3.45 1.01913C4.22734 0.72252 5.04915 0.56207 5.88 0.544697C6.94 0.484131 7.28 0.484131 10 0.484131C12.72 0.484131 13.06 0.484131 14.12 0.544697C14.9509 0.56207 15.7727 0.72252 16.55 1.01913C17.2196 1.26561 17.8248 1.66257 18.32 2.17998C18.83 2.68397 19.2257 3.29352 19.48 3.96668ZM15.325 3.97575C15.0877 3.97575 14.8557 4.0468 14.6583 4.1799C14.461 4.313 14.3072 4.50218 14.2163 4.72352C14.1255 4.94486 14.1018 5.18842 14.1481 5.42339C14.1944 5.65837 14.3087 5.8742 14.4765 6.04361C14.6443 6.21302 14.8581 6.32838 15.0909 6.37512C15.3237 6.42186 15.565 6.39787 15.7842 6.30619C16.0035 6.21451 16.1909 6.05925 16.3228 5.86005C16.4546 5.66085 16.525 5.42665 16.525 5.18708C16.525 4.86581 16.3986 4.55771 16.1735 4.33054C15.9485 4.10337 15.6433 3.97575 15.325 3.97575ZM9.98328 5.39925C8.96909 5.40125 7.97825 5.70665 7.13594 6.27688C6.29363 6.8471 5.63766 7.65655 5.25092 8.60295C4.86417 9.54936 4.76401 10.5902 4.96308 11.5941C5.16215 12.5979 5.65152 13.5197 6.36936 14.2429C7.0872 14.9661 8.00129 15.4583 8.99614 15.6573C9.99099 15.8563 11.0219 15.7531 11.9588 15.3609C12.8956 14.9687 13.6962 14.3049 14.2594 13.4536C14.8227 12.6022 15.1233 11.6014 15.1233 10.5777C15.1246 9.8964 14.9925 9.22159 14.7345 8.59206C14.4766 7.96252 14.0978 7.39068 13.6202 6.90942C13.1425 6.42816 12.5752 6.04699 11.9511 5.78782C11.3269 5.52864 10.6582 5.39659 9.98328 5.39925Z" fill="#CCCCCC"/>
</svg>
