<svg width="71" height="17" viewBox="0 0 71 17" fill="none" xmlns="http://www.w3.org/2000/svg">
<path d="M9.67397 4.13404V12.834C9.6659 13.3237 9.75538 13.81 9.93718 14.2647C10.119 14.7194 10.3895 15.1333 10.7329 15.4824C11.0763 15.8315 11.4857 16.1088 11.9373 16.2981C12.389 16.4873 12.8738 16.5848 13.3635 16.5848C13.8532 16.5848 14.3379 16.4873 14.7896 16.2981C15.2412 16.1088 15.6507 15.8315 15.9941 15.4824C16.3375 15.1333 16.608 14.7194 16.7898 14.2647C16.9716 13.81 17.061 13.3237 17.053 12.834V4.13404C17.061 3.64442 16.9716 3.15809 16.7898 2.7034C16.608 2.2487 16.3375 1.83474 15.9941 1.48564C15.6507 1.13654 15.2412 0.859282 14.7896 0.670026C14.3379 0.480769 13.8532 0.383301 13.3635 0.383301C12.8738 0.383301 12.389 0.480769 11.9373 0.670026C11.4857 0.859282 11.0763 1.13654 10.7329 1.48564C10.3895 1.83474 10.119 2.2487 9.93718 2.7034C9.75538 3.15809 9.6659 3.64442 9.67397 4.13404ZM12.315 12.834V4.13404C12.3133 3.99432 12.341 3.8558 12.3961 3.72739C12.4511 3.59897 12.5325 3.4835 12.6349 3.38838C12.7372 3.29327 12.8583 3.22062 12.9905 3.17509C13.1226 3.12957 13.2627 3.11218 13.402 3.12404C13.5358 3.11959 13.6691 3.14267 13.7937 3.19185C13.9182 3.24103 14.0314 3.31526 14.1261 3.40995C14.2207 3.50464 14.295 3.61777 14.3442 3.74232C14.3933 3.86688 14.4164 4.00021 14.412 4.13404V12.834C14.4081 13.1007 14.3004 13.3554 14.1119 13.5439C13.9233 13.7325 13.6686 13.8402 13.402 13.844C13.1239 13.854 12.8533 13.7533 12.6495 13.5639C12.4457 13.3746 12.3254 13.1121 12.315 12.834ZM38.335 0.639044H30.878V3.28004H33.286V16.251H35.926V3.28104H38.334V0.638044L38.335 0.639044ZM46.101 0.639044V12.834C46.0927 13.0963 45.9827 13.345 45.7943 13.5276C45.6059 13.7102 45.3538 13.8123 45.0915 13.8123C44.8291 13.8123 44.577 13.7102 44.3886 13.5276C44.2002 13.345 44.0902 13.0963 44.082 12.834V0.639044H41.364V12.834C41.364 13.8228 41.7567 14.771 42.4559 15.4701C43.155 16.1693 44.1032 16.562 45.092 16.562C46.0807 16.562 47.0289 16.1693 47.7281 15.4701C48.4272 14.771 48.82 13.8228 48.82 12.834V0.639044H46.1H46.101ZM70.257 3.28004V0.640044H63.732V16.251H70.257V13.611H66.373V9.57104H68.859V6.93104H66.373V3.28104L70.257 3.28004ZM28.393 16.251H25.597L23.655 8.87204C24.1393 8.7761 24.575 8.51412 24.8868 8.13128C25.1986 7.74845 25.367 7.26878 25.363 6.77504V4.36804C25.3662 4.22435 25.3404 4.08149 25.2869 3.94807C25.2335 3.81466 25.1535 3.69345 25.052 3.59177C24.9504 3.4901 24.8292 3.41005 24.6959 3.35648C24.5625 3.3029 24.4197 3.2769 24.276 3.28004H23.266V16.251H20.626V0.639044H24.276C25.2407 0.630413 26.1706 0.999254 26.8671 1.66682C27.5637 2.3344 27.9716 3.2478 28.004 4.21204V6.69804C28.0395 7.34268 27.9248 7.98676 27.669 8.57954C27.4133 9.17232 27.0233 9.69762 26.53 10.114L28.394 16.25L28.393 16.251ZM57.83 0.639044V9.18404L55.11 0.639044H52.392V16.251H55.11V8.63904L57.596 16.251H60.547V0.639044H57.83ZM0.741967 0.872044V16.484H3.53797V9.80404H6.10097V7.16404H3.53797V3.51404H7.57797V0.871044H0.740967L0.741967 0.872044Z" fill="#171B26"/>
</svg>
