<svg width="19" height="17" viewBox="0 0 19 17" fill="none" xmlns="http://www.w3.org/2000/svg">
<path d="M2.25304 3.79767C2.27662 3.54795 2.18767 3.30115 2.01353 3.13305L0.239495 0.844771V0.50293H5.74792L10.0056 10.5011L13.7488 0.50293H19V0.844771L17.4832 2.40191C17.3524 2.50863 17.2876 2.68406 17.3146 2.85768V14.2992C17.2876 14.4728 17.3524 14.6482 17.4832 14.7549L18.9645 16.3121V16.6539H11.5135V16.3121L13.0481 14.7169C13.1989 14.5555 13.1989 14.5081 13.1989 14.2611V5.01303L8.93232 16.6159H8.35572L3.38841 5.01303V12.7895C3.34703 13.1164 3.44844 13.4455 3.66338 13.682L5.65921 16.2741V16.6159H0V16.2741L1.99577 13.682C2.20923 13.4451 2.3047 13.1138 2.25304 12.7895V3.79767Z" fill="#CCCCCC"/>
</svg>
