<svg width="200" height="76" viewBox="0 0 200 76" fill="none" xmlns="http://www.w3.org/2000/svg">
<path d="M123.759 75.7085L182.684 -0.291501M130.462 75.7085L189.387 -0.291501M137.165 75.7085L196.09 -0.291501M143.868 75.7085L202.794 -0.291501M150.571 75.7085L209.497 -0.291502M157.274 75.7085L216.2 -0.291502M163.977 75.7085L222.903 -0.291502M170.68 75.7085L229.606 -0.291503M177.383 75.7085L236.309 -0.291503M184.086 75.7085L243.012 -0.291503M190.79 75.7085L249.715 -0.291504M197.492 75.7085L256.418 -0.291504M117.055 75.7085L175.981 -0.2915M110.352 75.7085L169.278 -0.2915M103.649 75.7085L162.574 -0.2915M96.9455 75.7085L155.871 -0.291499M90.2422 75.7085L149.168 -0.291499M83.5389 75.7085L142.464 -0.291499M76.8358 75.7085L135.761 -0.291498M70.1323 75.7085L129.058 -0.291498M63.4291 75.7085L122.355 -0.291498M56.7258 75.7085L115.651 -0.291497M50.0225 75.7085L108.948 -0.291497M43.3193 75.7085L102.245 -0.291497M36.6159 75.7085L95.5415 -0.291497M29.9126 75.7085L88.8382 -0.291496M23.2093 75.7085L82.1349 -0.291496M16.506 75.7085L75.4316 -0.291496M9.80287 75.7085L68.7284 -0.291495M3.09958 75.7085L62.0251 -0.291495M-3.60382 75.7085L55.3217 -0.291495M-10.3071 75.7085L48.6185 -0.291494M-17.0104 75.7085L41.9152 -0.291494M-23.7137 75.7085L35.2119 -0.291494M-30.417 75.7085L28.5086 -0.291493M-37.1203 75.7085L21.8053 -0.291493M-43.8235 75.7085L15.102 -0.291493M-50.5267 75.7085L8.39886 -0.291493M-57.2302 75.7085L1.69534 -0.291492" stroke="#171B26"/>
</svg>
