<svg width="16" height="14" viewBox="0 0 16 14" fill="none" xmlns="http://www.w3.org/2000/svg">
<path d="M5.026 13.421C11.064 13.421 14.367 8.41798 14.367 4.08698C14.367 3.94698 14.367 3.80498 14.361 3.66498C15.0041 3.19947 15.5591 2.62313 16 1.96298C15.3993 2.22783 14.7628 2.40239 14.111 2.48098C14.7975 2.07062 15.3117 1.42495 15.558 0.663981C14.913 1.04611 14.207 1.31435 13.471 1.45698C12.9762 0.930005 12.3214 0.580899 11.6081 0.463739C10.8948 0.346578 10.1627 0.467903 9.52534 0.808919C8.88796 1.14993 8.38081 1.69161 8.08245 2.35004C7.78409 3.00847 7.71118 3.74691 7.875 4.45098C6.56974 4.38553 5.29282 4.04645 4.12704 3.45572C2.96127 2.865 1.93268 2.03583 1.108 1.02198C0.68934 1.74506 0.561574 2.60038 0.750646 3.41425C0.939718 4.22811 1.43145 4.93951 2.126 5.40398C1.60554 5.3863 1.09652 5.24654 0.64 4.99598V5.04098C0.640897 5.79846 0.903307 6.5324 1.38287 7.11874C1.86244 7.70508 2.52975 8.10785 3.272 8.25898C2.99026 8.3366 2.69923 8.37529 2.407 8.37398C2.20098 8.37461 1.99538 8.35552 1.793 8.31698C2.00279 8.96904 2.41127 9.53915 2.96125 9.94746C3.51122 10.3558 4.17513 10.5818 4.86 10.594C3.69656 11.5078 2.2594 12.0034 0.78 12.001C0.519321 12.0021 0.258823 11.9871 0 11.956C1.50151 12.9132 3.2453 13.4215 5.026 13.421Z" fill="#3D424D"/>
</svg>
