<svg width="16" height="17" viewBox="0 0 16 17" fill="none" xmlns="http://www.w3.org/2000/svg">
<path d="M8 0.420959C5.829 0.420959 5.556 0.430959 4.703 0.468959C3.85 0.508959 3.269 0.642959 2.76 0.840959C2.22609 1.04178 1.74249 1.35679 1.343 1.76396C0.936076 2.16366 0.621107 2.6472 0.42 3.18096C0.222 3.68896 0.087 4.27096 0.048 5.12096C0.01 5.97596 0 6.24796 0 8.42196C0 10.594 0.01 10.866 0.048 11.719C0.088 12.571 0.222 13.152 0.42 13.661C0.625 14.187 0.898 14.633 1.343 15.078C1.787 15.523 2.233 15.797 2.759 16.001C3.269 16.199 3.849 16.334 4.701 16.373C5.555 16.411 5.827 16.421 8 16.421C10.173 16.421 10.444 16.411 11.298 16.373C12.149 16.333 12.732 16.199 13.241 16.001C13.7746 15.8 14.2578 15.485 14.657 15.078C15.102 14.633 15.375 14.187 15.58 13.661C15.777 13.152 15.912 12.571 15.952 11.719C15.99 10.866 16 10.594 16 8.42096C16 6.24796 15.99 5.97596 15.952 5.12196C15.912 4.27096 15.777 3.68896 15.58 3.18096C15.3789 2.64718 15.0639 2.16364 14.657 1.76396C14.2576 1.35664 13.774 1.0416 13.24 0.840959C12.73 0.642959 12.148 0.507959 11.297 0.468959C10.443 0.430959 10.172 0.420959 7.998 0.420959H8.001H8ZM7.283 1.86296H8.001C10.137 1.86296 10.39 1.86996 11.233 1.90896C12.013 1.94396 12.437 2.07496 12.719 2.18396C13.092 2.32896 13.359 2.50296 13.639 2.78296C13.919 3.06296 14.092 3.32896 14.237 3.70296C14.347 3.98396 14.477 4.40796 14.512 5.18796C14.551 6.03096 14.559 6.28396 14.559 8.41896C14.559 10.554 14.551 10.808 14.512 11.651C14.477 12.431 14.346 12.854 14.237 13.136C14.1087 13.4833 13.904 13.7974 13.638 14.055C13.358 14.335 13.092 14.508 12.718 14.653C12.438 14.763 12.014 14.893 11.233 14.929C10.39 14.967 10.137 14.976 8.001 14.976C5.865 14.976 5.611 14.967 4.768 14.929C3.988 14.893 3.565 14.763 3.283 14.653C2.9355 14.5249 2.62113 14.3205 2.363 14.055C2.09675 13.797 1.89172 13.4826 1.763 13.135C1.654 12.854 1.523 12.43 1.488 11.65C1.45 10.807 1.442 10.554 1.442 8.41696C1.442 6.28096 1.45 6.02896 1.488 5.18596C1.524 4.40596 1.654 3.98196 1.764 3.69996C1.909 3.32696 2.083 3.05996 2.363 2.77996C2.643 2.49996 2.909 2.32696 3.283 2.18196C3.565 2.07196 3.988 1.94196 4.768 1.90596C5.506 1.87196 5.792 1.86196 7.283 1.86096V1.86296ZM12.271 3.19096C12.1449 3.19096 12.0201 3.21579 11.9036 3.26404C11.7872 3.31228 11.6813 3.38299 11.5922 3.47214C11.503 3.56128 11.4323 3.66711 11.3841 3.78358C11.3358 3.90006 11.311 4.02489 11.311 4.15096C11.311 4.27703 11.3358 4.40186 11.3841 4.51834C11.4323 4.63481 11.503 4.74064 11.5922 4.82978C11.6813 4.91893 11.7872 4.98964 11.9036 5.03788C12.0201 5.08613 12.1449 5.11096 12.271 5.11096C12.5256 5.11096 12.7698 5.00982 12.9498 4.82978C13.1299 4.64975 13.231 4.40557 13.231 4.15096C13.231 3.89635 13.1299 3.65217 12.9498 3.47214C12.7698 3.2921 12.5256 3.19096 12.271 3.19096ZM8.001 4.31296C7.45607 4.30446 6.91489 4.40444 6.40898 4.6071C5.90306 4.80976 5.44251 5.11103 5.05415 5.49338C4.66579 5.87574 4.35736 6.33153 4.14684 6.83422C3.93632 7.33691 3.8279 7.87646 3.8279 8.42146C3.8279 8.96645 3.93632 9.50601 4.14684 10.0087C4.35736 10.5114 4.66579 10.9672 5.05415 11.3495C5.44251 11.7319 5.90306 12.0332 6.40898 12.2358C6.91489 12.4385 7.45607 12.5385 8.001 12.53C9.07954 12.5131 10.1082 12.0729 10.865 11.3042C11.6217 10.5355 12.0459 9.50013 12.0459 8.42146C12.0459 7.34279 11.6217 6.30737 10.865 5.53871C10.1082 4.77005 9.07954 4.32979 8.001 4.31296ZM8.001 5.75396C8.70833 5.75396 9.38669 6.03495 9.88685 6.53511C10.387 7.03526 10.668 7.71363 10.668 8.42096C10.668 9.12829 10.387 9.80665 9.88685 10.3068C9.38669 10.807 8.70833 11.088 8.001 11.088C7.29367 11.088 6.61531 10.807 6.11515 10.3068C5.61499 9.80665 5.334 9.12829 5.334 8.42096C5.334 7.71363 5.61499 7.03526 6.11515 6.53511C6.61531 6.03495 7.29367 5.75396 8.001 5.75396Z" fill="#3D424D"/>
</svg>
