<svg width="20" height="17" viewBox="0 0 20 17" fill="none" xmlns="http://www.w3.org/2000/svg">
<path d="M20 2.41598C19.2477 2.74211 18.452 2.95886 17.6375 3.05958C18.4959 2.5534 19.1376 1.75188 19.4412 0.806881C18.6376 1.2805 17.7585 1.61407 16.8418 1.79317C16.2797 1.19621 15.5498 0.78116 14.7471 0.601976C13.9443 0.422793 13.106 0.487767 12.3409 0.78845C11.5758 1.08913 10.9195 1.61162 10.4572 2.28797C9.99495 2.96432 9.74811 3.76325 9.7488 4.58088C9.74565 4.89288 9.77753 5.20426 9.84384 5.50924C8.21268 5.42977 6.61677 5.00905 5.16043 4.27459C3.70409 3.54013 2.42012 2.50846 1.39245 1.24705C0.864844 2.14345 0.701343 3.20617 0.935321 4.2183C1.1693 5.23043 1.78312 6.11566 2.65149 6.69331C2.00274 6.67589 1.3677 6.50375 0.799894 6.19139V6.23579C0.800962 7.1768 1.1282 8.08871 1.72653 8.81803C2.32485 9.54734 3.15773 10.0495 4.08496 10.2401C3.73418 10.332 3.37266 10.3771 3.00991 10.3743C2.74943 10.3788 2.48922 10.3555 2.23377 10.3046C2.49877 11.1134 3.00949 11.8206 3.69562 12.3289C4.38176 12.8373 5.20957 13.1218 6.0651 13.1432C4.61377 14.2712 2.82387 14.8832 0.981439 14.8813C0.653423 14.8834 0.325605 14.8647 0 14.8252C1.87484 16.0258 4.05953 16.661 6.2899 16.6538C13.8348 16.6538 17.96 10.4425 17.96 5.05838C17.96 4.87816 17.9537 4.70439 17.9449 4.53164C18.7537 3.95644 19.4501 3.23949 20 2.41598Z" fill="#CCCCCC"/>
</svg>
