<svg width="10" height="21" viewBox="0 0 10 21" fill="none" xmlns="http://www.w3.org/2000/svg">
<path fill-rule="evenodd" clip-rule="evenodd" d="M2.2014 10.6554V20.4092C2.2014 20.541 2.3185 20.6728 2.48244 20.6728H6.3466C6.48712 20.6728 6.62763 20.563 6.62763 20.4092V10.4796H9.41452C9.55503 10.4796 9.67213 10.3698 9.69555 10.238L9.92974 7.27228C9.95316 7.11851 9.81265 6.9867 9.64871 6.9867H6.60422V4.87776C6.60422 4.37249 7.02576 3.97706 7.5644 3.97706H9.71897C9.85948 3.97706 10 3.86722 10 3.71345V0.747748C10 0.615939 9.8829 0.484131 9.71897 0.484131H6.06557C3.93443 0.484131 2.2014 2.10977 2.2014 4.10887V6.9867H0.281031C0.140515 6.9867 0 7.09654 0 7.25032V10.238C0 10.3698 0.117096 10.5016 0.281031 10.5016H2.2014V10.6554Z" fill="#CCCCCC"/>
</svg>
